<svg id="draw.id" overflow="visible" v:layers="{&quot;default&quot;:{&quot;name&quot;:&quot;Default&quot;,&quot;print&quot;:1,&quot;display&quot;:1,&quot;publish&quot;:1},&quot;la5jqmka24s&quot;:{&quot;name&quot;:&quot;fd&quot;,&quot;print&quot;:1,&quot;publish&quot;:1,&quot;display&quot;:1}}" v:ver="2" x="500.5" xmlns="http://www.w3.org/2000/svg" xmlns:v="http://vecta.io" xmlns:xlink="http://www.w3.org/1999/xlink" y="500.5" v:stencils="{}"><style xmlns="http://www.w3.org/1999/xhtml"><![CDATA[#draw\.id{stroke:#000;stroke-linecap:round;stroke-linejoin:round;fill:#fff;fill-rule:evenodd;font-family:Roboto;font-size:14px;text-anchor:middle;}#draw\.id text{paint-order:stroke;white-space:pre;}#draw\.id .Text\.cls{stroke:none;}]]></style><defs><style type="text/css">@import url("/fonts/roboto.css"); @import url("/fonts/roboto-condensed.css"); @import url("/fonts/cousine.css"); @import url("/fonts/anonymous-pro.css"); @import url("/fonts/lato.css"); @import url("/fonts/open-sans.css");</style></defs><title xmlns="http://www.w3.org/1999/xhtml">Untitled drawing</title><desc xmlns="http://www.w3.org/1999/xhtml"></desc><svg height="512" id="kzdj8yue3d" overflow="visible" v:setup="{&quot;paper&quot;:&quot;CUSTOM&quot;,&quot;unit&quot;:&quot;px&quot;,&quot;scale&quot;:{&quot;from&quot;:&quot;1&quot;,&quot;to&quot;:&quot;1&quot;},&quot;width&quot;:&quot;32 px&quot;,&quot;height&quot;:&quot;32 px&quot;,&quot;margin&quot;:{&quot;top&quot;:&quot;0&quot;,&quot;bottom&quot;:&quot;0&quot;,&quot;left&quot;:&quot;0&quot;,&quot;right&quot;:&quot;0&quot;},&quot;orient&quot;:0}" viewBox="0 0 32 32" width="512"><g id="lebupt9lm4" class="Group.cls" transform="translate(0 0)" v:abox="{&quot;x&quot;:0,&quot;y&quot;:0,&quot;width&quot;:31.9994,&quot;height&quot;:32}"><g class="Prim.cls"><g id="lebupt9dm0" transform="translate(0 0)" class=""><path d="M 31.8935 15.5453 L 24.2938 0.456 C 24.1673 0.1848 23.8986 0.0083 23.5994 0 L 8.4 0 C 8.1008 0.0083 7.8321 0.1848 7.7056 0.456 L 0.1059 15.5453 C -0.0353 15.8277 -0.0353 16.1723 0.1059 16.4547 L 7.7056 31.544 C 7.8495 31.8277 8.1136 32 8.4 32 L 23.5994 32 C 23.8986 31.9917 24.1673 31.8152 24.2938 31.544 L 31.8935 16.4547 C 32.0347 16.1723 32.0347 15.8277 31.8935 15.5453 Z M 23.1369 30.1745 L 8.8625 30.1745 L 1.7241 16 L 8.8638 1.8255 L 23.1382 1.8255 L 30.2766 16 L 23.1369 30.1745 Z" stroke="none" fill="#000000" fill-rule="nonzero" stroke-width="1.0000026063390806"/></g><g id="lebupt9em1" transform="translate(8.585724607771958 6.259918188904715)" class=""><path d="M 6.752 8.0778 C 6.9269 8.2527 7.1627 8.3512 7.4088 8.3512 C 7.655 8.3512 7.8908 8.2527 8.0643 8.0778 L 14.5576 1.5846 C 14.9191 1.2232 14.9204 0.635 14.5576 0.2722 C 14.1961 -0.0905 13.6079 -0.0905 13.2453 0.2709 L 7.4101 6.11 L 1.5711 0.2735 C 1.207 -0.0776 0.6292 -0.0737 0.2716 0.2852 C -0.086 0.6428 -0.0911 1.2206 0.26 1.5846 L 6.752 8.0778 Z M 13.2453 11.4023 L 7.4101 17.24 L 1.5711 11.4036 C 1.207 11.0525 0.6292 11.0577 0.2716 11.4152 C -0.086 11.7728 -0.0911 12.3519 0.26 12.7146 L 6.752 19.2079 C 6.9269 19.3828 7.1627 19.4813 7.4088 19.4813 C 7.655 19.4813 7.8908 19.3828 8.0643 19.2079 L 14.5576 12.7146 C 14.9191 12.3532 14.9204 11.765 14.5576 11.4036 C 14.1961 11.0408 13.6079 11.0395 13.2453 11.4023 Z" stroke="none" fill="#000000" fill-rule="nonzero" stroke-width="1.0000026063390806"/></g></g></g></svg></svg>