<?xml version="1.0" standalone="no"?>
<!DOCTYPE svg PUBLIC "-//W3C//DTD SVG 20010904//EN"
 "http://www.w3.org/TR/2001/REC-SVG-20010904/DTD/svg10.dtd">
<svg version="1.0" xmlns="http://www.w3.org/2000/svg"
 width="700.000000pt" height="700.000000pt" viewBox="0 0 700.000000 700.000000"
 preserveAspectRatio="xMidYMid meet">
<metadata>
Created by potrace 1.14, written by Peter Selinger 2001-2017
</metadata>
<g transform="translate(0.000000,700.000000) scale(0.100000,-0.100000)"
fill="#000000" stroke="none">
<path d="M1772 6953 c-48 -24 -68 -54 -192 -303 -62 -124 -270 -538 -462 -920
-1135 -2253 -1085 -2150 -1087 -2212 -2 -57 -1 -60 470 -995 1072 -2131 1193
-2369 1216 -2401 13 -17 38 -40 56 -49 30 -16 151 -17 1712 -17 1525 0 1683 1
1710 16 64 34 -28 -140 955 1813 249 495 526 1044 615 1221 147 290 177 357
179 404 3 52 17 23 -701 1450 -872 1731 -976 1936 -997 1959 -48 54 45 51
-1763 51 -1533 0 -1681 -2 -1711 -17z m3514 -887 c141 -281 352 -700 469 -931
117 -231 348 -691 515 -1021 l302 -601 -320 -634 c-176 -349 -478 -949 -672
-1334 -194 -385 -361 -715 -372 -732 -11 -18 -16 -33 -13 -33 4 0 3 -6 -3 -12
-6 -7 -44 -82 -86 -165 l-77 -153 -1542 0 -1543 0 -210 417 c-116 230 -422
837 -679 1348 -258 512 -510 1013 -561 1114 l-93 185 456 905 c893 1774 1076
2136 1084 2147 7 8 436 11 1549 11 l1540 0 256 -511z"/>
<path d="M2020 5606 c-19 -6 -53 -29 -76 -51 -62 -62 -77 -151 -38 -228 23
-47 1440 -1464 1489 -1489 58 -30 131 -28 186 4 46 28 1469 1447 1488 1485 22
42 22 123 0 172 -19 45 -79 100 -116 109 -54 12 -84 13 -124 2 -40 -11 -105
-72 -694 -661 l-650 -649 -635 636 c-368 368 -651 644 -674 655 -45 24 -107
30 -156 15z"/>
<path d="M4860 3210 c-19 -4 -49 -14 -65 -22 -17 -9 -317 -303 -667 -652 -349
-350 -639 -636 -643 -636 -4 0 -293 286 -643 636 -437 437 -649 642 -677 655
-45 20 -127 20 -165 -2 -98 -55 -137 -162 -96 -260 19 -46 1441 -1471 1496
-1499 49 -25 113 -25 166 -1 28 13 252 231 762 741 398 397 730 736 739 754
26 48 23 142 -5 188 -42 68 -131 111 -202 98z"/>
</g>
</svg>
